<svg width="75" height="78" viewBox="0 0 75 78" fill="none" xmlns="http://www.w3.org/2000/svg">
<g id="Frame" clip-path="url(#clip0_2747_312)">
<g id="Group">
<path id="Vector" d="M74.8285 39C74.8285 60.542 58.1187 78 37.5 78C16.8812 78 0.171387 60.542 0.171387 39C0.171387 29.4856 3.43603 20.7342 8.89141 13.9574C9.5787 13.1047 10.3089 12.252 11.0822 11.4891C13.4447 8.97583 16.1939 6.82163 19.1578 5.02647C21.1338 3.85961 23.1957 2.87227 25.3864 2.10932C29.1665 0.762946 33.2473 0 37.5 0C41.7526 0 45.8763 0.762946 49.6564 2.10932C51.8472 2.87227 53.9091 3.85961 55.885 5.02647C57.6033 6.01381 59.1926 7.18067 60.6961 8.43728C63.7889 10.9954 66.4951 14.0921 68.6858 17.5478C72.5948 23.6962 74.8285 31.1013 74.8285 39Z" fill="#BD6C93"/>
<path id="Vector_2" opacity="0.2" d="M68.686 17.5477V56.9965C68.686 58.3429 67.6121 59.4648 66.3234 59.4648H35.0945L32.0017 72.5696C31.701 73.8262 30.0687 74.4994 28.3075 74.0506C26.5893 73.6018 25.4295 72.2105 25.7302 70.9539L28.4364 59.4648H13.4019C12.1132 59.4648 11.0393 58.3429 11.0393 56.9965V7.53964C11.0393 6.19327 12.1132 5.07129 13.4019 5.07129H55.8851C57.6034 6.05863 59.1927 7.22549 60.6962 8.48211C63.8319 11.0402 66.4952 14.092 68.686 17.5477Z" fill="#587273"/>
<g id="Group_2">
<g id="Group_3">
<path id="Vector_3" d="M10.1802 10.1875V55.2013C10.1802 56.5477 11.2541 57.6697 12.5427 57.6697H65.4643C66.7529 57.6697 67.8268 56.5477 67.8268 55.2013V10.1875H10.1802Z" fill="#FFE3F3"/>
<g id="Group_4">
<path id="Vector_4" d="M28.2647 20.061H13.7886V35.5443H28.2647V20.061Z" fill="#F2C6DF"/>
<path id="Vector_5" d="M46.2632 20.061H31.7871V35.5443H46.2632V20.061Z" fill="#F2C6DF"/>
<path id="Vector_6" d="M64.2615 20.061H49.7854V35.5443H64.2615V20.061Z" fill="#F2C6DF"/>
</g>
<g id="Group_5">
<path id="Vector_7" d="M28.2647 37.7434H13.7886V53.2267H28.2647V37.7434Z" fill="#F2C6DF"/>
<path id="Vector_8" d="M46.2632 37.7434H31.7871V53.2267H46.2632V37.7434Z" fill="#F2C6DF"/>
<path id="Vector_9" d="M64.2615 37.7434H49.7854V53.2267H64.2615V37.7434Z" fill="#F2C6DF"/>
</g>
<path id="Vector_10" d="M67.8268 5.74448C67.8268 4.3981 66.7529 3.27612 65.4643 3.27612H12.5427C11.2541 3.27612 10.1802 4.3981 10.1802 5.74448V10.1875H67.8268V5.74448Z" fill="#F2C6DF"/>
<path id="Vector_11" d="M65.0347 8.21276C65.8176 8.21276 66.4523 7.54969 66.4523 6.73175C66.4523 5.9138 65.8176 5.25073 65.0347 5.25073C64.2518 5.25073 63.6172 5.9138 63.6172 6.73175C63.6172 7.54969 64.2518 8.21276 65.0347 8.21276Z" fill="#FFE3F3"/>
<path id="Vector_12" d="M61.0399 8.21276C61.8227 8.21276 62.4574 7.54969 62.4574 6.73175C62.4574 5.9138 61.8227 5.25073 61.0399 5.25073C60.257 5.25073 59.6223 5.9138 59.6223 6.73175C59.6223 7.54969 60.257 8.21276 61.0399 8.21276Z" fill="#FFE3F3"/>
<path id="Vector_13" d="M57.002 8.21276C57.7849 8.21276 58.4196 7.54969 58.4196 6.73175C58.4196 5.9138 57.7849 5.25073 57.002 5.25073C56.2191 5.25073 55.5845 5.9138 55.5845 6.73175C55.5845 7.54969 56.2191 8.21276 57.002 8.21276Z" fill="#FFE3F3"/>
<path id="Vector_14" d="M64.0466 13.374H13.9602V15.0794H64.0466V13.374Z" fill="#F2C6DF"/>
<path id="Vector_15" d="M64.0466 16.4707H13.9602V18.1761H64.0466V16.4707Z" fill="#F2C6DF"/>
</g>
<g id="Group_6">
<path id="Vector_16" d="M32.5943 42.6441L31.5596 47.0459L35.0636 47.945L36.0983 43.5432L32.5943 42.6441Z" fill="#426263"/>
<path id="Vector_17" d="M40.7217 16.0218C33.0756 14.0471 25.3436 18.939 23.4965 26.9275C21.6064 34.916 26.2886 42.9493 33.9347 44.924C41.5808 46.8987 49.2699 42.0069 51.16 34.0184C53.05 26.0299 48.3679 17.9965 40.7217 16.0218ZM34.7509 41.3786C28.9948 39.8975 25.4724 33.8389 26.89 27.825C28.3075 21.7664 34.1065 18.0863 39.8626 19.5673C45.6187 21.0483 49.1411 27.107 47.7235 33.1208C46.3489 39.1795 40.507 42.8596 34.7509 41.3786Z" fill="#CD879F"/>
<path id="Vector_18" d="M24.9139 69.1588C24.6132 70.4154 25.773 71.8066 27.4913 72.2554C29.2095 72.7042 30.8848 72.031 31.1855 70.7744L36.0824 49.8607C36.3831 48.6041 35.2233 47.2128 33.5051 46.764C31.7868 46.3153 30.1116 46.9884 29.8109 48.2451L24.9139 69.1588Z" fill="#426263"/>
<path id="Vector_19" opacity="0.6" d="M47.7496 33.1436C49.1647 27.1262 45.6428 21.0495 39.8833 19.571C34.1237 18.0925 28.3075 21.7721 26.8924 27.7895C25.4773 33.807 28.9991 39.8836 34.7587 41.3621C40.5182 42.8406 46.3344 39.161 47.7496 33.1436Z" fill="white"/>
<path id="Vector_20" d="M46.3919 32.7168C46.349 32.9861 46.2631 33.2554 46.1772 33.5246C46.9504 28.543 43.9435 23.741 39.1754 22.5292C34.4502 21.3175 29.6392 24.1 28.0928 28.9021C28.1357 28.6328 28.1787 28.3635 28.2646 28.0943C29.5103 22.8434 34.5361 19.657 39.562 20.9136C44.5878 22.2151 47.6376 27.5108 46.3919 32.7168Z" fill="#F2C6DF"/>
</g>
<path id="Vector_21" opacity="0.2" d="M23.4964 26.9275C21.7782 34.2876 25.6012 41.6927 32.2164 44.3406L31.658 46.6743C30.713 46.8538 30.0257 47.4372 29.8109 48.2451L24.914 69.1588C24.6133 70.4154 25.7731 71.8066 27.4913 72.2554L40.7217 16.0218C33.0756 14.0471 25.3435 18.939 23.4964 26.9275Z" fill="#FFE3F3"/>
</g>
</g>
</g>
<defs>
<clipPath id="clip0_2747_312">
<rect width="74.6571" height="78" fill="white" transform="translate(0.171387)"/>
</clipPath>
</defs>
</svg>
